<?xml version="1.0" encoding="UTF-8"?>
<svg viewBox="0 0 147.5 202.5" xmlns="http://www.w3.org/2000/svg">
 <path d="m95.336 1.7626c14.75-1.1599 25.854 5.0549 33.311 18.644 0.66279 3.3148 1.9886 8.7009 3.9775 16.159-1.3e-4 4.972 0.33132 9.6124 0.99437 13.921l5.9662 38.532c0.66278 10.938 1.74 22.373 3.2317 34.306 0.66277 5.8006 0.99423 11.518 0.99437 17.153-0.16587 7.955-0.08301 13.59 0.24859 16.904 0.49705 3.1489 0.91137 7.955 1.243 14.418 0.33131 8.1207 0.16558 12.761-0.49719 13.921-0.99451 2.4859-3.8948 4.309-8.7008 5.469-4.1434 0.99438-7.7894 1.243-10.938 0.74578-1.2e-4 3.4803-0.91163 5.8005-2.7345 6.9606-0.66304 0.66291-1.7403 1.0772-3.2317 1.243-4.972 0.82864-9.861 0.33146-14.667-1.4916l-3.2317-1.9887c-2.3203-1.1601-4.1433-1.7402-5.4691-1.7402-1.1602 0-2.3203 0.41433-3.4803 1.243l-1.4916-0.74578c0.4971-1.3258 0.57997-2.0716 0.2486-2.2373s-1.2431-0.33145-2.7345-0.49719v-1.9887h-4.2261c-1.6574 1e-5 -4.1433 0.33147-7.4578 0.99437s-5.8006 0.99438-7.4578 0.99437c-2.486 1e-5 -4.3919-0.41431-5.7176-1.243-0.99443-0.16572-2.486-1.0772-4.4747-2.7345-0.49724 0.16574-2.2374 0.99438-5.2204 2.4859-2.3202 1.1601-3.8947 1.6573-4.7233 1.4916-2.3202-1.4916-5.3034-3.3146-8.9494-5.469-1.4916-0.33145-3.7289-1.0772-6.712-2.2373-4.8062-2.4859-12.098-6.0491-21.876-10.69 1.823-7.292 2.7345-14.17 2.7345-20.633-1e-5 -4.9718-0.4972-8.8664-1.4916-11.684l-4.7233-13.424c0-1.16-0.33146-3.0659-0.99437-5.7176-3.646-7.292-5.3862-11.187-5.2204-11.684 0.16573-1.3257 1.1601-2.0715 2.9831-2.2373h5.2204c2.8174-0.49709 10.607-3.6459 23.368-9.4465 0.49716 1e-4 1.1601-0.08276 1.9888-0.24859 0.49715-1.16 1.1601-2.7344 1.9887-4.7233 1.1601-0.49708 2.7345-1.4914 4.7233-2.9831 1.6572-3.3145 3.8117-5.0546 6.4634-5.2205 0.8286 0.33157 2.403 0.4973 4.7233 0.49719l0.99437-0.99437c1.6572-0.49707 3.3145-0.16562 4.9719 0.99437 0.3314-4.1431 0.82859-8.452 1.4916-12.927 0.49712-3.1487 1.5744-9.1149 3.2317-17.899 0.33139-5.4689 1.16-13.755 2.4859-24.859 0.49712-0.9942 1.0772-2.2372 1.7402-3.7289 2.6516-10.606 8.2035-17.816 16.656-21.628 1.8229-1.3256 5.3032-2.6515 10.441-3.9775"/>
 <path d="m95.584 5.7401c-9.9438 0.66311-17.236 6.0493-21.876 16.159-0.99444 1.4917-2.0717 3.7291-3.2317 6.712-0.33152 4.6406-1.0773 12.181-2.2373 22.622-1.1602 5.6349-2.486 14.501-3.9775 26.599-6e-5 1.1602-0.41438 3.0661-1.243 5.7176-0.66297 2.6518-0.91156 4.7234-0.74577 6.2148 1.16 1.4917 2.5687 4.2262 4.2261 8.2036 1.8229-3.4802 4.226-5.2203 7.2092-5.2204 2.4859 1.1e-4 4.8061 1.4917 6.9606 4.4747 1.4915-1.16 2.4858-1.6572 2.9831-1.4916 0.82856 0.33156 1.5743 0.41442 2.2373 0.24859 0.4971-0.82854 1.0772-1.74 1.7402-2.7345 0.66282-0.49708 1.5743-0.74567 2.7345-0.74578 1.3257 1.1e-4 2.9002 0.2487 4.7233 0.74578 0.4971-0.66281 2.4858-2.3201 5.9662-4.9719 2.6516-1.9886 4.5574-2.8173 5.7176-2.4859-1.3259 0.99448-2.9832 2.9004-4.9719 5.7176 1.6572-0.33135 2.1544-0.49708 1.4916-0.49719 1.16 1.1e-4 2.7344-0.16562 4.7233-0.49719v1.243h-1.243c-1.8231 1.1602-4.8062 2.3203-8.9493 3.4803 1.9886 2.486 3.8945 4.972 5.7176 7.4578 0.16563 0.49728-0.41442 0.99447-1.7402 1.4916-0.33155-0.82855-1.0773-2.2372-2.2373-4.2261-0.33156 1e-4 -0.91161-0.16563-1.7402-0.49719-0.66301-1.8229-2.3203-2.7344-4.9719-2.7345-1.1602 1e-4 -2.6518 0.24869-4.4747 0.74578 5.6347 3.6461 8.4521 7.7893 8.4522 12.43-1e-4 0.82874-0.41442 1.8231-1.243 2.9831-1.3259-3.9774-2.3203-6.4633-2.9831-7.4578-0.82874-1.6572-2.486-3.4802-4.9719-5.469 3.3145 2.9832 4.9718 9.6124 4.9719 19.887-1e-4 3.4804-0.24869 8.7837-0.74578 15.91-0.49728 6.9607-0.74587 12.181-0.74578 15.661-9e-5 4.1433 0.2485 7.8722 0.74578 11.187 1.6572 11.104 2.4858 21.213 2.4859 30.328 4.1431 0 7.7892 1.0772 10.938 3.2317 2.8173 1.1601 5.3861 1.7402 7.7064 1.7402s4.4746-0.58004 6.4634-1.7402c0.16561-0.16572 0.49707-0.41431 0.99437-0.74578 0.6628-6.9606 0.99426-13.093 0.99438-18.396-1.2e-4 -4.6404-0.08299-11.021-0.2486-19.142-0.16584-9.2808-0.24871-15.744-0.24859-19.39-1.2e-4 1.1602 0.16561-3.1488 0.49719-12.927 0.16561-5.1375-1.2e-4 -9.3636-0.49719-12.678-0.4973-1.3257-1.0774-3.0659-1.7402-5.2204v-10.192c-1.2e-4 -0.49709 0.6628-0.99427 1.9887-1.4916-1.2e-4 3.3147 0.57993 9.198 1.7402 17.65 0.49707 3.8118 0.57993 9.7781 0.2486 17.899-0.16585 8.1208 0.08274 14.253 0.74578 18.396 0.82852 5.1376 1.2428 17.982 1.243 38.532 7.6234 1e-5 12.678-1.0772 15.164-3.2317 0.16559-0.82862 0.16559-1.4915 0-1.9887-1.4e-4 -7.1263-0.41446-13.175-1.243-18.147-0.49733-2.9831-0.58019-7.292-0.2486-12.927 0.33132-5.469 0.33132-9.7779 0-12.927-1.4917-14.75-3.4804-32.4-5.9662-52.95 0.33133-4.806-0.82877-17.816-3.4803-39.029 0.1656-1.8229 0.08274-4.5574-0.24859-8.2036-0.82877-4.4745-2.7346-9.8607-5.7176-16.159-0.16585-0.66273-0.49731-1.74-0.99437-3.2317-0.33158 1.8e-4 -0.7459-0.08269-1.243-0.2486-0.82876-1.6571-2.2374-4.0602-4.2261-7.2092-1.8231-2.32-5.1377-4.0602-9.9437-5.2204-4.1433-1.1599-7.9551-1.5742-11.435-1.243" fill="#fff"/>
 <path d="m76.194 32.588c3.4802-0.49702 5.2204 2.4032 5.2204 8.7008-8e-5 3.3147-0.66299 7.9551-1.9887 13.921-1.4916 6.9607-3.1489 11.104-4.9719 12.43-1.9888 1.4917-3.3146 1.0774-3.9775-1.243-0.16579-0.66278-0.24866-2.2372-0.24859-4.7233-7e-5 -18.893 1.9887-28.588 5.9662-29.085"/>
 <path d="m92.104 33.085c6.1319-1.1599 9.1978 4.8063 9.198 17.899-1e-4 11.435-1.6574 17.65-4.9719 18.644-3.1489 0.9945-5.552-2.0715-7.2092-9.1979-1.1602-4.9717-1.7402-9.6121-1.7402-13.921-8e-5 -8.452 1.5743-12.927 4.7233-13.424"/>
 <path d="m117.96 54.464h1.243c1.4914 7.6236 2.2372 16.242 2.2373 25.854-1.2e-4 3.9776-0.33158 6.1321-0.99438 6.4634-1.1e-4 0.16584-0.24871 0.41443-0.74577 0.74578-1.2e-4 -3.6459-0.33158-9.115-0.99438-16.407-0.4973-7.4576-0.74589-13.01-0.74577-16.656"/>
 <path d="m55.809 89.764c0.99432 1.9889 2.4859 5.1377 4.4747 9.4465 0.82859 1e-4 2.403 0.08296 4.7233 0.24859-2.3203-5.9661-5.3862-9.1978-9.1979-9.6951" fill="#fff"/>
 <path d="m46.611 90.51-0.99437 0.99438h-1.4916c1.823 0.82875 4.1432 2.0717 6.9606 3.7289 0.33141 1.1602 1.6572 2.486 3.9775 3.9775h2.2373c-2.9832-6.1319-5.8006-9.1978-8.4522-9.1979-0.82869 1.1e-4 -1.5745 0.16584-2.2373 0.49718" fill="#fff"/>
 <path d="m42.634 94.985c-1.1601 0.99447-2.4031 2.1546-3.7289 3.4803-0.33149 0.99447 0.08283 3.1489 1.243 6.4634 0.82861 1e-4 1.0772-0.08276 0.74578-0.24859 2.9831-2.3201 4.4746-4.5574 4.4747-6.712-5e-5 -0.49708-0.08291-0.99427-0.2486-1.4916-0.66295-0.33135-1.4916-0.82853-2.4859-1.4916" fill="#dca582"/>
 <path d="m73.957 97.222c-0.82871 1.1e-4 -1.9888 0.2487-3.4803 0.74578-0.99444 6.4635-1.4916 9.4466-1.4916 8.9494 1.8229-0.82855 4.7232-1.9886 8.7008-3.4803 3.3145 6.9607 4.806 11.435 4.4747 13.424-0.66299 0.82872-1.4088 2.2374-2.2373 4.2261-0.49727 1.3259-0.33154 1.9888 0.49718 1.9887 0.49711 8e-5 1.5743-0.41424 3.2317-1.243 1.6572-0.99429 2.4858-1.6572 2.4859-1.9887v-2.4859c0.33137-1.9887 0.4971-3.8945 0.49718-5.7176-8e-5 -3.8117-0.82872-7.0434-2.4859-9.6951-9e-5 -0.49709-0.24868-1.16-0.74578-1.9887-6.795-1.6572-9.9438-2.5687-9.4465-2.7345" fill="#dca582"/>
 <path d="m47.606 99.957c0.16569 0.33155 0.16569 0.74587 0 1.243l-0.99437 0.24859c0.8286 2.8175 2.0716 7.1264 3.7289 12.927 2.6516-0.82856 6.3805-2.2372 11.187-4.2261 2.8173-1.16 4.3089-1.9887 4.4747-2.4859l0.49719-6.4634-9.9437-0.99437c-5.1376-0.49709-8.1208-0.57995-8.9494-0.24859" fill="#c1683a" stroke="#000"/>
 <path d="m35.425 101.45c-8.4522 4.8062-15.744 7.7065-21.876 8.7008 2.3202 0.33154 5.7176 0.82873 10.192 1.4916-2e-5 3.4804 1.0772 5.2205 3.2317 5.2205 1.3258 8e-5 2.5688-1.3258 3.7289-3.9775l8.9494 1.4916c3.646 0.663 6.5462 0.82872 8.7008 0.49718-0.3315-1.4915-0.99442-3.8945-1.9887-7.2092l-2.2373-2.7345c-0.3315 0.99447-0.58009 1.5745-0.74578 1.7402-0.82868 0.16583-1.6573 0.24869-2.4859 0.2486-2.3202 0.49728-3.7289-1.3257-4.2261-5.469h-1.243" fill="#c1683a" stroke="#000"/>
 <path d="m75.945 106.92c-3.3146 1.3259-8.1208 3.3975-14.418 6.2148-6e-5 5.1377 1.4915 15.164 4.4747 30.08-6e-5 2.8174 0.49712 7.0435 1.4916 12.678 0.49712 0.82868 3.5631 4.0604 9.1979 9.6951 2.4858 2.3202 5.3861 4.309 8.7008 5.9662-0.99445-2.3202-2.4032-7.5406-4.2261-15.661-0.82872-3.3145-2.3203-9.7779-4.4747-19.39-0.66299-3.3145-0.91158-8.2035-0.74578-14.667 0.33138-7.6234 0.33138-12.595 0-14.916" fill="#c1683a" stroke="#000"/>
 <path d="m8.07938,110.14912c-.16573.33154.08286.58014.74578.74577 .16572-.33136-.08287-.57996-.74578-.74577" fill="#f0f" stroke="#000"/>
 <path d="m5.3449 112.39c1.4916 2.1546 2.8174 5.2205 3.9775 9.1979l2.9831 9.9437c1.6573 5.6348 3.3974 11.601 5.2205 17.899 0.66289 2.486 0.24857 8.7008-1.243 18.644l-0.99437 3.4803c-0.16574 1.1601 0.33144 2.0716 1.4916 2.7345 6.6291 2.8174 16.49 7.0435 29.583 12.678 0.8286 0.4972 2.2373 1.1601 4.2261 1.9888-5e-5 -15.247-0.66296-27.262-1.9888-36.046 0.16569-2.8173 0.08282-6.9606-0.24859-12.43-0.49723-0.99431-1.0773-2.403-1.7402-4.2261-0.49723-2.4859-1.3259-8.6178-2.4859-18.396-5.3034-1.8229-9.198-2.4858-11.684-1.9888l-2.4859 1.4916c-1.4916 0.99446-2.9003 1.4088-4.2261 1.243-1.9888-0.16565-3.4803-1.9887-4.4747-5.469-1.823 9e-5 -4.4747-0.08278-7.955-0.24859-3.4803-0.33137-6.132-0.4971-7.955-0.49719" fill="#c1683a" stroke="#000"/>
 <path d="m59.29 113.63c-2.8174 0.99445-7.0435 2.4032-12.678 4.2261 0.33141 2.3203 0.99433 6.8778 1.9887 13.673 1.3258 7.7893 2.1544 17.236 2.4859 28.34 0.49714 12.761 0.99433 21.628 1.4916 26.599 0.16568 0.4972 0.74573-0.6629 1.7402-3.4803l5.9662-16.407c1.3258-2.4859 2.9002-6.049 4.7233-10.689-6e-5 -5.3033-1.9059-19.39-5.7176-42.261" fill="#c1683a" stroke="#000"/>
 <path d="m49.09722,114.87238 .74578.24859c-.16578-.16564-.41437-.2485-.74578-.24859" fill="#f0f" stroke="#000"/>
 <path d="m85.392 123.32c-1.3259 0.82872-3.3975 1.906-6.2148 3.2317-8e-5 7.1264 2.3201 20.468 6.9606 40.023 0.4971 0.99441 0.99429 2.5688 1.4916 4.7233-9e-5 -18.23-0.74587-34.223-2.2373-47.978" fill="#fff"/>
 <path d="m66.002 157.63c-2.8174 6.4634-6.5463 16.324-11.187 29.583 1.3258-0.16572 5.8833-1.9887 13.673-5.469 2.983-1.3258 8.6178-3.8117 16.904-7.4578-3.3146-1.9887-6.7121-4.6404-10.192-7.955l-9.1979-8.7008" fill="#c1683a" stroke="#000"/>
 <path d="m87.381 174.78c-6.132 3.4803-14.75 7.5407-25.854 12.181-6e-5 1.9888 2.7345 2.9831 8.2036 2.9831 2.1544 1e-5 5.2204-0.33145 9.1979-0.99437 4.1431-0.6629 7.292-0.99436 9.4465-0.99437-9e-5 -5.469-0.33155-9.8608-0.99438-13.175" fill="#fff"/>
</svg>
