<svg version="1.1" xmlns="http://www.w3.org/2000/svg" style="display: block;" viewBox="0 0 2048 2048" width="1024" height="1024">
<defs>
	<linearGradient id="Gradient1" gradientUnits="userSpaceOnUse" x1="474.024" y1="2138.02" x2="626.455" y2="1540.1">
		<stop class="stop0" offset="0" stop-opacity="1" stop-color="rgb(54,88,111)"/>
		<stop class="stop1" offset="1" stop-opacity="1" stop-color="rgb(163,160,111)"/>
	</linearGradient>
	<linearGradient id="Gradient2" gradientUnits="userSpaceOnUse" x1="777.745" y1="1452.43" x2="981.925" y2="1282.04">
		<stop class="stop0" offset="0" stop-opacity="1" stop-color="rgb(81,102,104)"/>
		<stop class="stop1" offset="1" stop-opacity="1" stop-color="rgb(150,147,103)"/>
	</linearGradient>
	<linearGradient id="Gradient3" gradientUnits="userSpaceOnUse" x1="359.254" y1="1595.11" x2="711.266" y2="1371.66">
		<stop class="stop0" offset="0" stop-opacity="1" stop-color="rgb(54,108,132)"/>
		<stop class="stop1" offset="1" stop-opacity="1" stop-color="rgb(91,131,130)"/>
	</linearGradient>
	<linearGradient id="Gradient4" gradientUnits="userSpaceOnUse" x1="1267.16" y1="912.133" x2="904.419" y2="1213.04">
		<stop class="stop0" offset="0" stop-opacity="1" stop-color="rgb(243,202,95)"/>
		<stop class="stop1" offset="1" stop-opacity="1" stop-color="rgb(153,150,104)"/>
	</linearGradient>
	<linearGradient id="Gradient5" gradientUnits="userSpaceOnUse" x1="1428.18" y1="1427.51" x2="1301.25" y2="1345.82">
		<stop class="stop0" offset="0" stop-opacity="1" stop-color="rgb(102,85,63)"/>
		<stop class="stop1" offset="1" stop-opacity="1" stop-color="rgb(162,135,84)"/>
	</linearGradient>
</defs>
<path transform="translate(0,0)" fill="rgb(13,31,66)" d="M 0 0 L 2048 0 L 2048 1627.97 L 2048 2048 L 862.317 2048 C 871.668 2010.37 883.801 1973.44 894.703 1936.24 C 924.684 1833.93 956.98 1732.27 986.202 1629.75 C 974.328 1626.96 955.162 1630.09 942.35 1629.86 C 912.362 1630.8 882.31 1630.41 852.308 1630.59 C 839.01 1630.67 815.165 1628.81 803.096 1632.58 C 802.36 1623 805.348 1603.69 802.042 1595.29 C 796.372 1598.3 790.123 1602.47 784.089 1604.48 C 773.662 1611.09 762.295 1616.6 751.406 1622.41 C 730.023 1633.81 708.535 1645.02 686.944 1656.02 L 534.389 1735.34 C 523.669 1741.01 476.597 1769.93 468.836 1770.57 C 468.46 1769.68 467.999 1768.8 467.794 1767.85 C 456.217 1768.13 444.642 1767.29 433.086 1766.67 C 432.477 1751.86 432.439 1737.07 432.478 1722.24 C 431.246 1712.43 432.053 1701.47 432.032 1691.54 L 431.941 1629.66 C 412.983 1628.88 393.912 1629.2 374.939 1629.15 C 362.197 1629.12 348.587 1628.13 335.982 1629.93 L 333.235 1631.1 C 317.049 1629.57 300.458 1630.1 284.215 1630.06 L 207.792 1629.97 C 138.528 1629.55 69.2618 1629.69 -2.84217e-14 1630.39 L 0 0 z"/>
<path transform="translate(0,0)" fill="rgb(13,31,66)" d="M 1321.8 531.908 C 1337.06 533.765 1351.8 550.505 1360.87 561.863 C 1368.89 562.758 1379.07 565.832 1384.51 572.387 C 1386.29 574.531 1386.29 575.767 1386.18 578.458 C 1383.62 582.311 1379.08 584.356 1374.62 585.197 C 1370 586.065 1365.19 586.39 1360.52 586.887 C 1369.97 594.598 1376.28 602.591 1382.62 612.904 L 1383.62 611.947 C 1391.67 604.104 1393.25 588.792 1404.66 588.868 C 1410.06 588.904 1415.01 591.936 1418.63 595.752 C 1423.27 600.647 1425.93 607.229 1425.47 614.002 C 1424.94 621.731 1420.98 628.445 1414.97 633.237 C 1408.15 638.677 1400.03 640.788 1391.73 642.764 C 1395.88 653.509 1400.08 673.258 1404.66 681.718 C 1409.7 691.04 1416.97 699.643 1423.19 708.213 C 1431.02 719.084 1438.63 730.112 1446.01 741.289 C 1470.53 778.382 1493.09 818.383 1513.63 857.813 C 1563.62 953.784 1606.68 1053.49 1651.1 1152.11 C 1660.06 1172 1667.63 1192.49 1676.83 1212.28 C 1655.21 1217.21 1632.14 1221.93 1610.11 1224.34 L 1599.77 1370.91 C 1597.53 1398.8 1593.32 1427.4 1592.95 1455.32 C 1626.1 1488.91 1663.12 1519.34 1698.63 1550.38 C 1728.88 1576.82 1757.78 1604.25 1788.69 1630 C 1804.59 1628.32 1821.97 1629.59 1838.03 1629.48 L 1952.31 1629.21 C 1984.18 1629.65 2016.14 1628.67 2048 1627.97 L 2048 2048 L 862.317 2048 C 871.668 2010.37 883.801 1973.44 894.703 1936.24 C 924.684 1833.93 956.98 1732.27 986.202 1629.75 L 986.549 1629.26 C 993.88 1603.1 1002.79 1577.27 1010.88 1551.32 C 1017.82 1529.05 1023.92 1506.53 1031.17 1484.35 C 1043.45 1446.81 1056.5 1409.26 1066.49 1371.03 C 1072.04 1357.25 1076.03 1342.3 1080.47 1328.09 C 1090.53 1295.92 1099.83 1263.53 1110.11 1231.43 C 1127.51 1177.08 1143.42 1122.3 1160.55 1067.88 L 1187.88 979.493 C 1193.99 959.88 1200.8 940.381 1206.05 920.517 C 1214.47 921.629 1224.56 924.309 1232.05 928.416 L 1241.3 915.808 C 1244.36 914.951 1246.98 912.571 1249.55 910.698 L 1250.31 910.396 L 1251.79 908.309 C 1239.73 891.748 1230.74 873.336 1218.73 856.853 C 1214.55 849.099 1209.78 840.466 1204.24 833.636 C 1220.2 813.811 1258.73 788.062 1279.83 771.032 C 1275.33 768.01 1270.96 764.87 1266.8 761.396 C 1244.59 742.873 1226.59 715.101 1223.84 685.803 L 1224.67 684.971 L 1225.03 681.468 L 1223.75 680.873 C 1219.5 672.37 1221.41 647.874 1219.59 636.66 C 1206.43 637.581 1192.55 638.033 1179.47 636.205 C 1169.29 635.677 1135.6 634.213 1128.36 628.268 C 1127.06 627.2 1127.49 626.739 1127.49 625.23 C 1131.85 619.739 1169.6 605.179 1179.77 600.29 C 1193.22 601.874 1207.91 598.689 1221.23 596.764 C 1226.39 593.368 1246.44 592.462 1255.22 588.145 C 1257.25 583.262 1267.64 577.487 1272.2 574.019 C 1289.38 560.932 1306.24 546.9 1321.8 531.908 z"/>
<path transform="translate(0,0)" fill="rgb(56,90,119)" d="M 1952.31 1629.21 C 1984.18 1629.65 2016.14 1628.67 2048 1627.97 L 2048 2048 L 862.317 2048 C 871.668 2010.37 883.801 1973.44 894.703 1936.24 C 924.684 1833.93 956.98 1732.27 986.202 1629.75 L 986.549 1629.26 C 1023.85 1628.03 1061.46 1629.01 1098.79 1629.06 C 1181.23 1629.18 1263.83 1629.92 1346.25 1628.84 C 1349.9 1673.43 1358.31 1717.31 1361.02 1762.03 C 1370.2 1762.2 1379.58 1762 1388.72 1762.93 L 1398.57 1762.79 L 1405.64 1763.23 C 1414.38 1763.57 1423.13 1764.03 1431.88 1763.83 C 1432.01 1772.87 1431.69 1782.17 1432.4 1791.18 C 1432.6 1788.43 1432.23 1784.32 1434.07 1782.34 C 1455.24 1780.28 1477.66 1781.97 1498.96 1782 C 1578.23 1782.6 1657.45 1786.24 1736.44 1792.91 C 1750.24 1763.62 1772.8 1702.19 1796.19 1682.51 C 1786.01 1673.81 1775.65 1664.11 1764.56 1656.64 C 1770.25 1649.7 1776.02 1642.63 1782.35 1636.28 L 1788.69 1630 C 1804.59 1628.32 1821.97 1629.59 1838.03 1629.48 L 1952.31 1629.21 z"/>
<path transform="translate(0,0)" fill="rgb(25,54,96)" d="M 1398.57 1762.79 L 1405.64 1763.23 C 1414.38 1763.57 1423.13 1764.03 1431.88 1763.83 C 1432.01 1772.87 1431.69 1782.17 1432.4 1791.18 C 1432.6 1788.43 1432.23 1784.32 1434.07 1782.34 C 1455.24 1780.28 1477.66 1781.97 1498.96 1782 C 1578.23 1782.6 1657.45 1786.24 1736.44 1792.91 C 1733.38 1800.06 1720.7 1824.94 1722.24 1830.39 C 1727.35 1830.13 1731.91 1824.5 1735.23 1820.85 C 1742.72 1812.61 1749.8 1803.02 1757.97 1795.53 C 1761.23 1795.77 1764.49 1796.08 1767.73 1796.46 C 1801.79 1800.16 1911.69 1813.43 1932.55 1841.08 C 1934.37 1843.51 1935.68 1846.45 1934.96 1849.54 C 1933.7 1854.99 1927.19 1858.89 1922.54 1861.14 C 1898.97 1872.5 1875.35 1876.97 1849.94 1882.04 C 1740.81 1903.81 1616.38 1907.94 1505.03 1907.96 C 1412.48 1908.67 1319.95 1905.29 1227.71 1897.84 C 1175.33 1893.54 1124.36 1888.08 1072.98 1876.62 C 1059.44 1873.6 1045.01 1870.88 1031.92 1866.25 C 1023.71 1863.34 1008.8 1857.77 1005.01 1849.44 C 1004.79 1846.11 1005.14 1844.37 1007.37 1841.79 C 1037.83 1806.33 1237.73 1789.82 1291.54 1786.36 C 1324.02 1784.28 1356.57 1784.51 1389.01 1782.11 L 1388.72 1762.93 L 1398.57 1762.79 z"/>
<path transform="translate(0,0)" fill="rgb(13,31,66)" d="M 1398.57 1762.79 L 1405.64 1763.23 C 1414.38 1763.57 1423.13 1764.03 1431.88 1763.83 C 1432.01 1772.87 1431.69 1782.17 1432.4 1791.18 L 1431.41 1792.05 C 1442.52 1801.91 1450.29 1827.91 1455.72 1841.75 C 1392.04 1842.02 1328.22 1839.31 1264.6 1836.84 C 1259.9 1836.66 1246.99 1838.03 1243.32 1836.78 C 1242.85 1836.62 1242.58 1836.11 1242.22 1835.77 C 1243.43 1834.53 1244.23 1833.88 1245.85 1833.26 C 1293.17 1821.15 1342.97 1811.27 1388.25 1792.86 L 1390.41 1791.9 L 1389.01 1782.11 L 1388.72 1762.93 L 1398.57 1762.79 z"/>
<path transform="translate(0,0)" fill="rgb(46,87,150)" d="M 1398.57 1762.79 L 1405.64 1763.23 C 1414.38 1763.57 1423.13 1764.03 1431.88 1763.83 C 1432.01 1772.87 1431.69 1782.17 1432.4 1791.18 L 1431.41 1792.05 C 1422.86 1791.74 1414.58 1790.54 1405.95 1790.67 C 1400.8 1791.03 1395.52 1791.15 1390.41 1791.9 L 1389.01 1782.11 L 1388.72 1762.93 L 1398.57 1762.79 z"/>
<path transform="translate(0,0)" fill="rgb(244,243,245)" d="M 1398.57 1762.79 L 1405.64 1763.23 C 1406.15 1772.15 1406.84 1781.79 1405.95 1790.67 C 1400.8 1791.03 1395.52 1791.15 1390.41 1791.9 L 1389.01 1782.11 L 1388.72 1762.93 L 1398.57 1762.79 z"/>
<path transform="translate(0,0)" fill="rgb(215,163,78)" d="M 1245.85 1833.26 C 1246.46 1832.75 1247.32 1831.97 1248.03 1831.51 C 1258.78 1824.52 1357.17 1793.27 1371.72 1791.07 C 1377.41 1790.21 1382.79 1791.44 1388.25 1792.86 C 1342.97 1811.27 1293.17 1821.15 1245.85 1833.26 z"/>
<path transform="translate(0,0)" fill="rgb(13,31,66)" d="M 1815.48 1665.23 C 1830.64 1658.57 1852.31 1666.61 1867.48 1670.71 C 1854.39 1686.87 1839.95 1701.6 1826.24 1717.19 C 1803.36 1743.23 1781.12 1769.69 1757.97 1795.53 C 1749.8 1803.02 1742.72 1812.61 1735.23 1820.85 C 1731.91 1824.5 1727.35 1830.13 1722.24 1830.39 C 1720.7 1824.94 1733.38 1800.06 1736.44 1792.91 C 1750.24 1763.62 1772.8 1702.19 1796.19 1682.51 C 1802.35 1680.02 1811.37 1670.49 1815.48 1665.23 z"/>
<path transform="translate(0,0)" fill="rgb(25,54,96)" d="M 1782.35 1636.28 C 1791.72 1645.6 1803.53 1659.52 1815.48 1665.23 C 1811.37 1670.49 1802.35 1680.02 1796.19 1682.51 C 1786.01 1673.81 1775.65 1664.11 1764.56 1656.64 C 1770.25 1649.7 1776.02 1642.63 1782.35 1636.28 z"/>
<path transform="translate(0,0)" fill="rgb(25,54,96)" d="M 1249.55 910.698 C 1248.89 917.585 1241.25 926.612 1237.54 932.708 C 1236.44 935.86 1235.63 938.015 1236.21 941.424 C 1251.06 962.604 1344.93 1035.52 1369.32 1046.51 C 1373.41 1049 1377.63 1051.36 1381.39 1054.33 C 1378.52 1105.91 1365.15 1174.69 1340.31 1220.6 C 1340.65 1220.71 1340.98 1220.82 1341.31 1220.93 C 1346.51 1222.58 1369.23 1225.56 1371.35 1228.39 C 1370.81 1231.01 1370.21 1233.48 1369.39 1236.03 C 1365.22 1262.24 1358.53 1288.46 1352.81 1314.39 L 1334.9 1399.4 C 1330.76 1418.46 1322.64 1445.04 1322.06 1464.12 C 1321.82 1472.04 1329.69 1523.33 1331.86 1532.75 C 1332.82 1564.81 1343.07 1596.88 1346.25 1628.84 C 1263.83 1629.92 1181.23 1629.18 1098.79 1629.06 C 1061.46 1629.01 1023.85 1628.03 986.549 1629.26 C 993.88 1603.1 1002.79 1577.27 1010.88 1551.32 C 1017.82 1529.05 1023.92 1506.53 1031.17 1484.35 C 1043.45 1446.81 1056.5 1409.26 1066.49 1371.03 C 1072.04 1357.25 1076.03 1342.3 1080.47 1328.09 C 1090.53 1295.92 1099.83 1263.53 1110.11 1231.43 C 1127.51 1177.08 1143.42 1122.3 1160.55 1067.88 L 1187.88 979.493 C 1193.99 959.88 1200.8 940.381 1206.05 920.517 C 1214.47 921.629 1224.56 924.309 1232.05 928.416 L 1241.3 915.808 C 1244.36 914.951 1246.98 912.571 1249.55 910.698 z"/>
<path transform="translate(0,0)" fill="rgb(252,195,36)" d="M 1369.32 1046.51 C 1373.41 1049 1377.63 1051.36 1381.39 1054.33 C 1378.52 1105.91 1365.15 1174.69 1340.31 1220.6 L 1328.62 1217.61 C 1352.81 1160.31 1364.7 1108.48 1369.32 1046.51 z"/>
<path transform="translate(0,0)" fill="rgb(56,90,119)" d="M 1662.88 1629.24 C 1682.18 1639.82 1700.92 1651.61 1719.78 1662.96 C 1728.26 1668.06 1736.69 1673.74 1745.55 1678.14 C 1751.24 1670.6 1757.27 1662.71 1764.56 1656.64 C 1775.65 1664.11 1786.01 1673.81 1796.19 1682.51 C 1772.8 1702.19 1750.24 1763.62 1736.44 1792.91 C 1657.45 1786.24 1578.23 1782.6 1498.96 1782 C 1477.66 1781.97 1455.24 1780.28 1434.07 1782.34 C 1432.23 1784.32 1432.6 1788.43 1432.4 1791.18 C 1431.69 1782.17 1432.01 1772.87 1431.88 1763.83 C 1434.59 1763.67 1437.31 1763.87 1439.59 1762.21 C 1440.3 1748.26 1438.13 1733.45 1437.36 1719.45 C 1435.9 1690.56 1434.27 1661.67 1432.48 1632.8 L 1433.24 1630 C 1438.18 1627.55 1637.62 1629.28 1662.88 1629.24 z"/>
<path transform="translate(0,0)" fill="rgb(25,54,96)" d="M 1279.83 771.032 C 1286.89 774.511 1320.77 788.437 1322.69 792.027 C 1338.01 817.003 1352.13 843.124 1365.73 869.079 C 1372.24 882.725 1373.89 954.479 1379 975.568 C 1379.06 980.176 1378.28 984.797 1377.71 989.364 L 1290.09 934.702 C 1276.93 926.555 1262.98 919.24 1250.31 910.396 L 1251.79 908.309 C 1239.73 891.748 1230.74 873.336 1218.73 856.853 C 1214.55 849.099 1209.78 840.466 1204.24 833.636 C 1220.2 813.811 1258.73 788.062 1279.83 771.032 z"/>
<path transform="translate(0,0)" fill="rgb(252,195,36)" d="M 1365.44 958.971 C 1363.4 927.971 1350.09 880.488 1340.2 850.395 C 1335.07 834.791 1323.56 807.529 1322.69 792.027 C 1338.01 817.003 1352.13 843.124 1365.73 869.079 C 1372.24 882.725 1373.89 954.479 1379 975.568 C 1379.06 980.176 1378.28 984.797 1377.71 989.364 L 1290.09 934.702 C 1276.93 926.555 1262.98 919.24 1250.31 910.396 L 1251.79 908.309 C 1252.57 904.917 1253.58 901.6 1254.56 898.264 C 1292.27 916.308 1329.02 938.388 1365.44 958.971 z"/>
<path transform="translate(0,0)" fill="rgb(25,54,96)" d="M 1469.5 1367.36 C 1471.92 1418.91 1474.97 1470.75 1476.02 1522.33 C 1503.92 1534.52 1529.5 1552.76 1555.91 1567.86 C 1591.39 1588.14 1629 1606.38 1662.88 1629.24 C 1637.62 1629.28 1438.18 1627.55 1433.24 1630 L 1432.48 1632.8 C 1432.4 1632.61 1432.28 1632.44 1432.24 1632.25 C 1431.12 1626.14 1431.42 1619.01 1431.1 1612.8 L 1429.05 1569.71 C 1428.09 1549.4 1422.19 1488.82 1425.41 1472.71 C 1428.21 1458.69 1461.62 1381.32 1469.5 1367.36 z"/>
<path transform="translate(0,0)" fill="rgb(134,84,78)" d="M 1381.39 1054.33 C 1386.74 1057.65 1396.27 1064.92 1402.85 1063.15 C 1404.8 1062.62 1406.12 1059.95 1406.89 1058.22 C 1410.57 1049.94 1412.51 1039.99 1414.65 1031.17 C 1421.83 1001.66 1426.38 972.497 1430.02 942.394 C 1431.97 963.094 1434.62 983.776 1436.03 1004.52 C 1440.26 1067.02 1438.14 1130.97 1426.86 1192.69 C 1423.93 1208.7 1419.38 1224.57 1415.62 1240.42 C 1400.64 1238.03 1384.54 1236.58 1369.39 1236.03 C 1370.21 1233.48 1370.81 1231.01 1371.35 1228.39 C 1369.23 1225.56 1346.51 1222.58 1341.31 1220.93 C 1340.98 1220.82 1340.65 1220.71 1340.31 1220.6 C 1365.15 1174.69 1378.52 1105.91 1381.39 1054.33 z"/>
<path transform="translate(0,0)" fill="url(#Gradient5)" d="M 1369.39 1236.03 C 1384.54 1236.58 1400.64 1238.03 1415.62 1240.42 L 1375.43 1386.94 C 1369.78 1407.23 1356.72 1444.7 1355.25 1463.33 C 1353.47 1486.03 1360.11 1512.63 1361.25 1535.84 L 1360.55 1536.21 C 1356.17 1535.36 1342.14 1542.85 1335.18 1543.37 L 1333.76 1541.24 C 1333.96 1538.02 1333.72 1536.46 1332.28 1533.55 C 1332.14 1533.28 1332 1533.02 1331.86 1532.75 C 1329.69 1523.33 1321.82 1472.04 1322.06 1464.12 C 1322.64 1445.04 1330.76 1418.46 1334.9 1399.4 L 1352.81 1314.39 C 1358.53 1288.46 1365.22 1262.24 1369.39 1236.03 z"/>
<path transform="translate(0,0)" fill="rgb(134,84,78)" d="M 1400.93 699.302 C 1400.07 731.766 1400.05 764.181 1398.48 796.634 C 1396.27 840.208 1392.36 883.678 1386.75 926.945 C 1385.01 941.033 1384.12 962.513 1379 975.568 C 1373.89 954.479 1372.24 882.725 1365.73 869.079 C 1367 856.527 1366.11 843.425 1365.75 830.824 C 1365.04 806.531 1363.59 782.073 1363.92 757.778 C 1379.76 739.034 1392.45 722.615 1400.93 699.302 z"/>
<path transform="translate(0,0)" fill="rgb(68,67,53)" d="M 1331.86 1532.75 C 1332 1533.02 1332.14 1533.28 1332.28 1533.55 C 1333.72 1536.46 1333.96 1538.02 1333.76 1541.24 L 1335.18 1543.37 C 1342.14 1542.85 1356.17 1535.36 1360.55 1536.21 L 1361.25 1535.84 C 1363.65 1544.54 1363.71 1554.95 1364.63 1563.96 L 1370.51 1620.81 C 1375.76 1667.64 1383.77 1714.58 1387.62 1761.5 C 1391.23 1761.81 1395.07 1761.87 1398.57 1762.79 L 1388.72 1762.93 C 1379.58 1762 1370.2 1762.2 1361.02 1762.03 C 1358.31 1717.31 1349.9 1673.43 1346.25 1628.84 C 1343.07 1596.88 1332.82 1564.81 1331.86 1532.75 z"/>
<path transform="translate(0,0)" fill="rgb(244,243,245)" d="M 1225.03 681.468 C 1253.53 689.326 1278.34 678.931 1303.54 667.084 C 1305.75 682.86 1307.8 700.502 1297.48 714.077 C 1291.5 721.862 1282.66 726.937 1272.91 728.175 C 1263.11 729.398 1253.72 725.595 1246.3 719.336 C 1235.61 710.331 1230.04 697.51 1224.67 684.971 L 1225.03 681.468 z"/>
<path transform="translate(0,0)" fill="rgb(215,163,78)" d="M 1221.23 596.764 L 1222.9 597.717 C 1228.33 597.16 1234.51 594.527 1239.73 594.636 C 1241.17 597.514 1241.26 603.971 1240.1 607.046 C 1239.07 609.797 1237.69 611.294 1235.04 612.57 C 1227.7 616.116 1222.56 613.942 1215.52 620.143 C 1218.6 619.568 1222.46 617.126 1225.13 618.571 C 1225.19 618.983 1225.24 619.398 1225.3 619.809 C 1225.6 621.637 1225.42 620.943 1226.36 622.656 L 1225.37 622.886 C 1220.36 624.107 1209.84 626.348 1206.7 630.303 C 1197.85 632.542 1188.58 635.35 1179.47 636.205 C 1169.29 635.677 1135.6 634.213 1128.36 628.268 C 1127.06 627.2 1127.49 626.739 1127.49 625.23 C 1131.85 619.739 1169.6 605.179 1179.77 600.29 C 1193.22 601.874 1207.91 598.689 1221.23 596.764 z"/>
<path transform="translate(0,0)" fill="rgb(184,134,79)" d="M 1336.29 565.753 C 1296.22 586.196 1260.67 612.378 1217.9 627.633 C 1214.04 628.12 1210.42 629.225 1206.7 630.303 C 1209.84 626.348 1220.36 624.107 1225.37 622.886 L 1226.36 622.656 C 1225.42 620.943 1225.6 621.637 1225.3 619.809 C 1225.24 619.398 1225.19 618.983 1225.13 618.571 C 1222.46 617.126 1218.6 619.568 1215.52 620.143 C 1222.56 613.942 1227.7 616.116 1235.04 612.57 C 1237.69 611.294 1239.07 609.797 1240.1 607.046 C 1241.26 603.971 1241.17 597.514 1239.73 594.636 C 1234.51 594.527 1228.33 597.16 1222.9 597.717 L 1221.23 596.764 C 1226.39 593.368 1246.44 592.462 1255.22 588.145 C 1272.3 583.75 1289.47 579.529 1306.45 574.747 C 1316.43 571.937 1326.27 568.324 1336.29 565.753 z"/>
<path transform="translate(0,0)" fill="rgb(153,106,76)" d="M 1348.37 589.095 C 1317.6 614.582 1258.79 634.214 1219.59 636.66 C 1206.43 637.581 1192.55 638.033 1179.47 636.205 C 1188.58 635.35 1197.85 632.542 1206.7 630.303 C 1210.42 629.225 1214.04 628.12 1217.9 627.633 C 1226.7 627.823 1236.43 625.42 1245.06 623.59 C 1281.55 615.853 1313.94 602.978 1348.37 589.095 z"/>
<path transform="translate(0,0)" fill="rgb(25,54,96)" d="M 573.054 247.823 C 579.873 242.547 601.044 244.621 610.134 244.516 C 646.708 244.097 683.317 245.014 719.901 244.821 L 1356.15 244.727 L 1652.38 244.382 L 1748.79 244.246 C 1766.39 244.23 1784.21 243.656 1801.79 244.467 C 1805.54 308.623 1814.11 372.998 1820.86 436.915 L 1848.65 706.016 L 1952.31 1629.21 L 1838.03 1629.48 C 1821.97 1629.59 1804.59 1628.32 1788.69 1630 C 1757.78 1604.25 1728.88 1576.82 1698.63 1550.38 C 1663.12 1519.34 1626.1 1488.91 1592.95 1455.32 C 1593.32 1427.4 1597.53 1398.8 1599.77 1370.91 L 1610.11 1224.34 C 1632.14 1221.93 1655.21 1217.21 1676.83 1212.28 C 1667.63 1192.49 1660.06 1172 1651.1 1152.11 C 1606.68 1053.49 1563.62 953.784 1513.63 857.813 C 1493.09 818.383 1470.53 778.382 1446.01 741.289 C 1438.63 730.112 1431.02 719.084 1423.19 708.213 C 1416.97 699.643 1409.7 691.04 1404.66 681.718 C 1400.08 673.258 1395.88 653.509 1391.73 642.764 C 1400.03 640.788 1408.15 638.677 1414.97 633.237 C 1420.98 628.445 1424.94 621.731 1425.47 614.002 C 1425.93 607.229 1423.27 600.647 1418.63 595.752 C 1415.01 591.936 1410.06 588.904 1404.66 588.868 C 1393.25 588.792 1391.67 604.104 1383.62 611.947 L 1382.62 612.904 C 1376.28 602.591 1369.97 594.598 1360.52 586.887 C 1365.19 586.39 1370 586.065 1374.62 585.197 C 1379.08 584.356 1383.62 582.311 1386.18 578.458 C 1386.29 575.767 1386.29 574.531 1384.51 572.387 C 1379.07 565.832 1368.89 562.758 1360.87 561.863 C 1351.8 550.505 1337.06 533.765 1321.8 531.908 C 1306.24 546.9 1289.38 560.932 1272.2 574.019 C 1267.64 577.487 1257.25 583.262 1255.22 588.145 C 1246.44 592.462 1226.39 593.368 1221.23 596.764 C 1207.91 598.689 1193.22 601.874 1179.77 600.29 C 1169.6 605.179 1131.85 619.739 1127.49 625.23 C 1127.49 626.739 1127.06 627.2 1128.36 628.268 C 1135.6 634.213 1169.29 635.677 1179.47 636.205 C 1192.55 638.033 1206.43 637.581 1219.59 636.66 C 1221.41 647.874 1219.5 672.37 1223.75 680.873 L 1225.03 681.468 L 1224.67 684.971 L 1223.84 685.803 C 1226.59 715.101 1244.59 742.873 1266.8 761.396 C 1270.96 764.87 1275.33 768.01 1279.83 771.032 C 1258.73 788.062 1220.2 813.811 1204.24 833.636 C 1198.76 831.424 1187.33 817.681 1182.7 813.017 C 1163.96 794.134 1143.58 777.027 1124.91 758.203 L 914.866 917.035 C 878.042 944.732 841.463 972.854 804.189 999.938 C 802.161 996.022 801.633 816.33 804.106 802.252 C 803.24 785.499 803.916 768.39 803.955 751.602 L 804.331 655.886 C 804.714 553.366 805.48 450.714 804.345 348.205 C 727.627 313.904 650.007 281.613 573.054 247.823 z"/>
<path transform="translate(0,0)" fill="rgb(249,225,126)" d="M 1124.91 758.203 C 1135.85 749.319 1218.15 682.487 1222.96 682.662 L 1223.84 685.803 C 1226.59 715.101 1244.59 742.873 1266.8 761.396 C 1270.96 764.87 1275.33 768.01 1279.83 771.032 C 1258.73 788.062 1220.2 813.811 1204.24 833.636 C 1198.76 831.424 1187.33 817.681 1182.7 813.017 C 1163.96 794.134 1143.58 777.027 1124.91 758.203 z"/>
<path transform="translate(0,0)" fill="rgb(153,106,76)" d="M 1179.77 600.29 C 1207.8 580.324 1228.85 552.584 1261.09 538.201 C 1278.22 530.556 1303.61 524.995 1321.8 531.908 C 1306.24 546.9 1289.38 560.932 1272.2 574.019 C 1267.64 577.487 1257.25 583.262 1255.22 588.145 C 1246.44 592.462 1226.39 593.368 1221.23 596.764 C 1207.91 598.689 1193.22 601.874 1179.77 600.29 z"/>
<path transform="translate(0,0)" fill="url(#Gradient4)" d="M 804.189 999.938 C 841.463 972.854 878.042 944.732 914.866 917.035 L 1124.91 758.203 C 1143.58 777.027 1163.96 794.134 1182.7 813.017 C 1187.33 817.681 1198.76 831.424 1204.24 833.636 C 1209.78 840.466 1214.55 849.099 1218.73 856.853 C 1230.74 873.336 1239.73 891.748 1251.79 908.309 L 1250.31 910.396 L 1249.55 910.698 C 1246.98 912.571 1244.36 914.951 1241.3 915.808 L 1232.05 928.416 C 1224.56 924.309 1214.47 921.629 1206.05 920.517 C 1200.8 940.381 1193.99 959.88 1187.88 979.493 L 1160.55 1067.88 C 1143.42 1122.3 1127.51 1177.08 1110.11 1231.43 C 1099.83 1263.53 1090.53 1295.92 1080.47 1328.09 C 1076.03 1342.3 1072.04 1357.25 1066.49 1371.03 C 1056.5 1409.26 1043.45 1446.81 1031.17 1484.35 C 1023.92 1506.53 1017.82 1529.05 1010.88 1551.32 C 1002.79 1577.27 993.88 1603.1 986.549 1629.26 L 986.202 1629.75 C 974.328 1626.96 955.162 1630.09 942.35 1629.86 C 912.362 1630.8 882.31 1630.41 852.308 1630.59 C 839.01 1630.67 815.165 1628.81 803.096 1632.58 C 802.36 1623 805.348 1603.69 802.042 1595.29 C 796.372 1598.3 790.123 1602.47 784.089 1604.48 C 773.662 1611.09 762.295 1616.6 751.406 1622.41 C 730.023 1633.81 708.535 1645.02 686.944 1656.02 L 534.389 1735.34 C 523.669 1741.01 476.597 1769.93 468.836 1770.57 C 468.46 1769.68 467.999 1768.8 467.794 1767.85 C 469.596 1727.04 468.051 1685.34 468.034 1644.45 L 467.448 1383.11 L 467.245 1300.52 C 467.18 1284.39 466.136 1267.46 467.927 1251.45 C 476.299 1245.8 483.852 1238.4 492.065 1232.38 C 506.855 1224.24 527.166 1222.35 543.673 1218.4 C 592.192 1206.8 640.866 1196.3 689.561 1185.48 L 737.207 1174.7 C 746.01 1172.7 755.148 1169.91 764.119 1169.21 C 765.186 1167.96 765.616 1167.24 765.887 1165.55 C 767.149 1157.67 765.52 1133.68 765.452 1124.27 C 765.231 1093.44 766.232 1062.28 764.783 1031.49 L 765.261 1029.56 C 777.998 1019.42 791.765 1010.4 804.189 999.938 z"/>
<path transform="translate(0,0)" fill="url(#Gradient3)" d="M 589.163 1263.16 C 641.239 1252.46 691.441 1231.95 743.443 1220.89 C 749.195 1219.66 754.381 1216.73 760.355 1216.67 L 762.15 1217.89 C 763.781 1229.02 762.647 1241.46 762.582 1252.74 L 762.484 1314.19 C 762.482 1325.56 761.853 1337.36 762.749 1348.66 C 767.218 1354.98 765.681 1364.54 765.503 1371.96 C 756.424 1375.51 724.552 1383.78 721.414 1391.66 C 718.261 1399.57 720.524 1410.03 724.211 1417.35 C 726.446 1421.78 729.498 1425.91 732.589 1429.78 L 733.009 1433.61 C 736.51 1434.25 742.161 1430.93 745.337 1429.32 C 749.236 1427.34 753.593 1427.26 757.3 1425.19 C 759.663 1423.87 762.436 1423.27 765.103 1424 C 766.19 1424.29 766.228 1424.22 766.55 1425.18 C 768.527 1431.05 766.501 1454.77 766.475 1462.74 C 766.196 1489.78 766.432 1516.82 767.185 1543.84 C 767.459 1551.1 771.114 1576.42 767.963 1582.06 C 763.93 1584.38 759.79 1585.95 755.458 1587.59 C 755.671 1594.2 756.375 1605.28 760.016 1610.76 C 761.955 1611.96 762.379 1612.49 764.731 1612 C 771.563 1610.61 776.924 1604.84 784.089 1604.48 C 773.662 1611.09 762.295 1616.6 751.406 1622.41 C 730.023 1633.81 708.535 1645.02 686.944 1656.02 L 534.389 1735.34 C 523.669 1741.01 476.597 1769.93 468.836 1770.57 C 468.46 1769.68 467.999 1768.8 467.794 1767.85 C 469.596 1727.04 468.051 1685.34 468.034 1644.45 L 467.448 1383.11 L 467.245 1300.52 C 467.18 1284.39 466.136 1267.46 467.927 1251.45 C 476.299 1245.8 483.852 1238.4 492.065 1232.38 C 491.922 1232.63 491.785 1232.88 491.637 1233.13 C 488.12 1239.01 474.306 1245.09 476.406 1251.64 C 477.598 1255.36 481.964 1258.56 484.179 1261.71 C 489.577 1269.38 490.314 1279.62 497.664 1286.17 C 498.017 1286.02 498.361 1285.84 498.723 1285.7 C 505.842 1283.03 514.93 1282.53 522.457 1280.58 C 539.146 1276.27 555.642 1270.8 572.209 1266 C 575.508 1265.05 583.719 1261.74 586.859 1262.13 C 587.694 1262.24 588.395 1262.82 589.163 1263.16 z"/>
<path transform="translate(0,0)" fill="rgb(113,154,150)" d="M 589.163 1263.16 C 641.239 1252.46 691.441 1231.95 743.443 1220.89 C 749.195 1219.66 754.381 1216.73 760.355 1216.67 L 762.15 1217.89 C 763.781 1229.02 762.647 1241.46 762.582 1252.74 L 762.484 1314.19 C 762.482 1325.56 761.853 1337.36 762.749 1348.66 C 762.312 1355.42 762.551 1362.35 762.506 1369.13 L 587.362 1430.68 L 523.739 1453.51 C 516.446 1456.11 509.185 1459.87 501.598 1461.41 C 500.117 1425.01 501.287 1388.11 501.304 1351.66 C 501.314 1331.71 499.514 1310.94 500.989 1291.12 C 505.675 1284.84 575.632 1268.41 587.808 1263.7 L 589.163 1263.16 z"/>
<path transform="translate(0,0)" fill="rgb(113,154,150)" d="M 760.462 1427.97 C 761.868 1428.4 761.15 1428.01 762.414 1429.46 C 763.868 1457.59 762.406 1486.39 762.644 1514.6 C 762.82 1535.55 765.167 1557.32 763.26 1578.15 C 757.839 1583.01 528.645 1677.1 504.157 1684.61 L 503.291 1685.27 L 502.298 1684.69 C 501.095 1633.57 503.238 1582.42 501.208 1531.29 C 516.538 1526.08 531.51 1519.47 546.544 1513.44 L 624.369 1482.15 C 669.604 1463.8 715.43 1446.8 760.462 1427.97 z"/>
<path transform="translate(0,0)" fill="url(#Gradient2)" d="M 801.91 1493.18 C 802.693 1482.36 802.128 1471.19 802.099 1460.33 L 802.082 1398.5 C 803.084 1329.3 803.368 1260.09 802.933 1190.89 C 802.793 1174.16 801.114 1074.86 803.356 1068.42 C 804.17 1070.67 804.083 1069.8 804.076 1072.07 C 804.065 1075.55 803.204 1080.21 805.325 1083.16 C 809.084 1088.39 816.772 1090.84 821.38 1095.94 C 830.346 1105.87 838.051 1116.99 846.541 1127.33 C 855.974 1138.81 866.219 1149.62 875.584 1161.18 C 881.377 1168.33 885.749 1176.35 890.85 1183.97 C 899.19 1196.43 908.049 1209.21 917.086 1221.16 C 922.864 1228.8 929.1 1236.1 934.818 1243.79 C 939.055 1249.49 942.868 1255.81 947.446 1261.2 C 954.114 1269.03 962.359 1275.47 968.681 1283.67 C 976.308 1293.57 981.583 1305.21 989.251 1315.08 C 998.048 1326.4 1009.41 1335.75 1019.75 1345.59 C 1026.27 1351.79 1032.23 1358.63 1039.37 1364.14 C 1045.73 1369.06 1054.77 1375 1062.46 1377.07 C 1063.67 1375.21 1063.29 1376.05 1064.01 1373.86 C 1064.7 1371.76 1064.73 1372.13 1066.49 1371.03 C 1056.5 1409.26 1043.45 1446.81 1031.17 1484.35 C 1023.92 1506.53 1017.82 1529.05 1010.88 1551.32 C 1002.79 1577.27 993.88 1603.1 986.549 1629.26 L 986.202 1629.75 C 974.328 1626.96 955.162 1630.09 942.35 1629.86 C 912.362 1630.8 882.31 1630.41 852.308 1630.59 C 839.01 1630.67 815.165 1628.81 803.096 1632.58 C 802.36 1623 805.348 1603.69 802.042 1595.29 C 804.693 1587.66 801.916 1536.94 802.192 1524.41 C 801.69 1514.04 801.948 1503.57 801.91 1493.18 z"/>
<path transform="translate(0,0)" fill="rgb(56,90,119)" d="M 802.192 1524.41 C 805.605 1514.73 800.26 1486.65 805.476 1481 C 808.101 1483.62 808.934 1487.61 810.055 1491.07 C 823.351 1500.23 834.097 1518.06 843.9 1530.9 C 866.427 1560.41 910.131 1610.35 945.138 1621.57 C 947.212 1622.23 948.673 1623.64 950.373 1624.93 C 951.906 1626.1 953.406 1626.89 955.124 1627.74 L 954.554 1627.28 L 953.962 1628.29 L 952.607 1628.3 C 948.795 1628.35 945.956 1628.64 942.35 1629.86 C 912.362 1630.8 882.31 1630.41 852.308 1630.59 C 839.01 1630.67 815.165 1628.81 803.096 1632.58 C 802.36 1623 805.348 1603.69 802.042 1595.29 C 804.693 1587.66 801.916 1536.94 802.192 1524.41 z"/>
<path transform="translate(0,0)" fill="rgb(122,145,127)" d="M 802 1004.96 L 801.806 1331.56 C 801.745 1342.61 800.763 1353.66 800.598 1364.72 C 800.211 1390.75 800.456 1416.81 800.433 1442.84 C 800.419 1459.29 798.989 1477.01 801.91 1493.18 C 801.948 1503.57 801.69 1514.04 802.192 1524.41 C 801.916 1536.94 804.693 1587.66 802.042 1595.29 C 796.372 1598.3 790.123 1602.47 784.089 1604.48 C 776.924 1604.84 771.563 1610.61 764.731 1612 C 762.379 1612.49 761.955 1611.96 760.016 1610.76 C 756.375 1605.28 755.671 1594.2 755.458 1587.59 C 759.79 1585.95 763.93 1584.38 767.963 1582.06 C 771.114 1576.42 767.459 1551.1 767.185 1543.84 C 766.432 1516.82 766.196 1489.78 766.475 1462.74 C 766.501 1454.77 768.527 1431.05 766.55 1425.18 C 766.228 1424.22 766.19 1424.29 765.103 1424 C 762.436 1423.27 759.663 1423.87 757.3 1425.19 C 753.593 1427.26 749.236 1427.34 745.337 1429.32 C 742.161 1430.93 736.51 1434.25 733.009 1433.61 L 732.589 1429.78 C 729.498 1425.91 726.446 1421.78 724.211 1417.35 C 720.524 1410.03 718.261 1399.57 721.414 1391.66 C 724.552 1383.78 756.424 1375.51 765.503 1371.96 C 765.681 1364.54 767.218 1354.98 762.749 1348.66 C 761.853 1337.36 762.482 1325.56 762.484 1314.19 L 762.582 1252.74 C 762.647 1241.46 763.781 1229.02 762.15 1217.89 L 760.355 1216.67 C 754.381 1216.73 749.195 1219.66 743.443 1220.89 C 691.441 1231.95 641.239 1252.46 589.163 1263.16 C 588.395 1262.82 587.694 1262.24 586.859 1262.13 C 583.719 1261.74 575.508 1265.05 572.209 1266 C 555.642 1270.8 539.146 1276.27 522.457 1280.58 C 514.93 1282.53 505.842 1283.03 498.723 1285.7 C 498.361 1285.84 498.017 1286.02 497.664 1286.17 C 490.314 1279.62 489.577 1269.38 484.179 1261.71 C 481.964 1258.56 477.598 1255.36 476.406 1251.64 C 474.306 1245.09 488.12 1239.01 491.637 1233.13 C 491.785 1232.88 491.922 1232.63 492.065 1232.38 C 506.855 1224.24 527.166 1222.35 543.673 1218.4 C 592.192 1206.8 640.866 1196.3 689.561 1185.48 L 737.207 1174.7 C 746.01 1172.7 755.148 1169.91 764.119 1169.21 L 765.809 1169.47 C 766.316 1168.86 767.052 1168.4 767.329 1167.66 C 768.091 1165.63 766.828 1046.03 767.073 1031.73 C 776.135 1022.06 790.321 1011.1 802 1004.96 z"/>
<path transform="translate(0,0)" fill="rgb(13,31,66)" d="M 1187.73 830.865 C 1196.88 840.377 1205.68 850.274 1214.59 860.011 C 1216.73 859.507 1217.24 858.4 1218.73 856.853 C 1230.74 873.336 1239.73 891.748 1251.79 908.309 L 1250.31 910.396 L 1249.55 910.698 C 1246.98 912.571 1244.36 914.951 1241.3 915.808 L 1232.05 928.416 C 1224.56 924.309 1214.47 921.629 1206.05 920.517 C 1196.66 917.128 1187.72 912.614 1178.21 909.511 C 1171.32 907.262 1163.94 906.226 1157.16 903.765 C 1155.26 903.079 1154.02 902.154 1152.56 900.752 L 1153.04 899.154 C 1166.9 891.652 1190.92 897.23 1205.71 899.648 C 1184.04 888.506 1158.6 881.371 1138.71 867.34 C 1162.02 870.949 1184.23 881.133 1207.4 886.116 C 1187.82 870.001 1167.13 857.005 1151.18 836.669 C 1159.02 840.684 1166.17 846.322 1173.38 851.349 C 1186.65 860.59 1199.9 870.03 1213.96 878.034 C 1205.74 861.835 1194.95 847.807 1187.73 830.865 z"/>
<path transform="translate(0,0)" fill="rgb(252,195,36)" d="M 1218.73 856.853 C 1230.74 873.336 1239.73 891.748 1251.79 908.309 L 1250.31 910.396 L 1249.55 910.698 C 1246.98 912.571 1244.36 914.951 1241.3 915.808 C 1230.99 897.633 1227.81 876.474 1214.59 860.011 C 1216.73 859.507 1217.24 858.4 1218.73 856.853 z"/>
<path transform="translate(0,0)" fill="rgb(56,90,119)" d="M 468.692 203.466 C 468.623 220.697 466.653 249.042 469.166 265.122 C 471.067 245.126 469.716 224.014 469.801 203.891 C 504.052 218.923 538.472 233.567 573.054 247.823 C 650.007 281.613 727.627 313.904 804.345 348.205 C 805.48 450.714 804.714 553.366 804.331 655.886 L 803.955 751.602 C 803.916 768.39 803.24 785.499 804.106 802.252 C 801.633 816.33 802.161 996.022 804.189 999.938 C 791.765 1010.4 777.998 1019.42 765.261 1029.56 L 764.783 1031.49 C 766.232 1062.28 765.231 1093.44 765.452 1124.27 C 765.52 1133.68 767.149 1157.67 765.887 1165.55 C 765.616 1167.24 765.186 1167.96 764.119 1169.21 C 755.148 1169.91 746.01 1172.7 737.207 1174.7 L 689.561 1185.48 C 640.866 1196.3 592.192 1206.8 543.673 1218.4 C 527.166 1222.35 506.855 1224.24 492.065 1232.38 C 483.852 1238.4 476.299 1245.8 467.927 1251.45 C 466.136 1267.46 467.18 1284.39 467.245 1300.52 L 467.448 1383.11 L 468.034 1644.45 C 468.051 1685.34 469.596 1727.04 467.794 1767.85 C 456.217 1768.13 444.642 1767.29 433.086 1766.67 C 432.477 1751.86 432.439 1737.07 432.478 1722.24 C 434.765 1713.93 433.163 1700.74 433.141 1691.95 L 432.431 1611.14 L 432.198 1279.43 C 431.239 1267.62 431.858 1255.29 431.875 1243.43 L 431.943 1180.14 L 432.001 979.626 L 432.126 495.14 C 432.117 411.723 433.323 328.093 431.87 244.698 C 431.691 231.051 431.678 217.402 431.833 203.754 C 444.118 203.793 456.415 203.969 468.692 203.466 z"/>
<path transform="translate(0,0)" fill="rgb(13,31,66)" d="M 468.692 203.466 C 468.623 220.697 466.653 249.042 469.166 265.122 C 471.067 245.126 469.716 224.014 469.801 203.891 C 504.052 218.923 538.472 233.567 573.054 247.823 C 650.007 281.613 727.627 313.904 804.345 348.205 C 805.48 450.714 804.714 553.366 804.331 655.886 L 803.955 751.602 C 803.916 768.39 803.24 785.499 804.106 802.252 C 801.633 816.33 802.161 996.022 804.189 999.938 C 791.765 1010.4 777.998 1019.42 765.261 1029.56 L 764.783 1031.49 C 764.147 1031.49 763.557 1031.15 762.961 1030.93 C 762.041 1021.17 762.91 1011.04 762.913 1001.23 L 762.713 944.1 L 762.991 743.477 C 732.866 702.244 706.187 657.8 678.475 614.902 C 670.482 602.528 656.682 577.362 647.215 567.744 L 647.317 567.226 C 640.358 553.746 631.075 540.687 623.109 527.712 C 618.51 520.108 613.975 512.464 609.505 504.783 C 603.182 496.353 598.177 486.976 591.675 478.599 L 591.81 477.715 C 586.525 464.664 576.33 451.593 569.176 439.382 C 547.535 402.441 524.367 366.326 502.073 329.765 C 491.718 312.783 479.879 295.358 471.298 277.419 C 469.211 280.443 469.095 282.931 468.994 286.52 C 468.091 318.559 468.904 350.841 468.942 382.901 L 469.024 562.025 L 467.975 1045.31 L 468.077 1181.89 C 468.094 1204.92 469.12 1228.48 467.927 1251.45 C 466.136 1267.46 467.18 1284.39 467.245 1300.52 L 467.448 1383.11 L 468.034 1644.45 C 468.051 1685.34 469.596 1727.04 467.794 1767.85 C 456.217 1768.13 444.642 1767.29 433.086 1766.67 C 432.477 1751.86 432.439 1737.07 432.478 1722.24 C 434.765 1713.93 433.163 1700.74 433.141 1691.95 L 432.431 1611.14 L 432.198 1279.43 C 431.239 1267.62 431.858 1255.29 431.875 1243.43 L 431.943 1180.14 L 432.001 979.626 L 432.126 495.14 C 432.117 411.723 433.323 328.093 431.87 244.698 C 431.691 231.051 431.678 217.402 431.833 203.754 C 444.118 203.793 456.415 203.969 468.692 203.466 z"/>
<path transform="translate(0,0)" fill="rgb(201,206,153)" d="M 471.298 277.419 C 500.539 284.02 528.989 296.097 557.583 305.152 C 606.248 320.788 654.812 336.742 703.269 353.013 C 723.009 359.685 743.137 365.817 762.692 372.98 L 762.985 628.651 C 762.987 666.806 764.168 705.363 762.991 743.477 C 732.866 702.244 706.187 657.8 678.475 614.902 C 670.482 602.528 656.682 577.362 647.215 567.744 L 647.317 567.226 C 640.358 553.746 631.075 540.687 623.109 527.712 C 618.51 520.108 613.975 512.464 609.505 504.783 C 603.182 496.353 598.177 486.976 591.675 478.599 L 591.81 477.715 C 586.525 464.664 576.33 451.593 569.176 439.382 C 547.535 402.441 524.367 366.326 502.073 329.765 C 491.718 312.783 479.879 295.358 471.298 277.419 z"/>
<path transform="translate(0,0)" fill="rgb(249,225,126)" d="M 591.81 477.715 C 597.277 475.063 602.429 471.64 608.064 469.372 C 618.889 465.015 634.067 465.595 644.979 469.42 C 657.524 473.818 667.457 483.262 673.171 495.198 C 679.166 507.719 680.278 522.551 675.524 535.649 C 670.93 548.308 660.596 560.991 648.253 566.829 C 647.946 566.974 647.629 567.093 647.317 567.226 C 640.358 553.746 631.075 540.687 623.109 527.712 C 618.51 520.108 613.975 512.464 609.505 504.783 C 603.182 496.353 598.177 486.976 591.675 478.599 L 591.81 477.715 z"/>
<path transform="translate(0,0)" fill="rgb(201,206,153)" d="M 618.667 496.379 C 625.024 496.104 631.22 495.907 637.571 496.403 C 642.73 501.21 645.122 504.504 645.374 511.893 C 645.602 518.561 643.838 522.85 639.224 527.456 C 638.993 527.686 638.748 527.902 638.511 528.126 L 623.109 527.712 C 618.51 520.108 613.975 512.464 609.505 504.783 C 612.113 501.113 615.058 498.968 618.667 496.379 z"/>
<path transform="translate(0,0)" fill="rgb(122,145,127)" d="M 469.801 203.891 C 504.052 218.923 538.472 233.567 573.054 247.823 C 650.007 281.613 727.627 313.904 804.345 348.205 C 805.48 450.714 804.714 553.366 804.331 655.886 L 803.955 751.602 C 803.916 768.39 803.24 785.499 804.106 802.252 C 803.139 803.729 803.819 803.238 802.008 803.64 C 797.169 796.113 792.683 788.409 787.673 780.983 C 780.577 770.464 769.851 757.848 765.414 746.005 C 764.502 703.81 765.081 661.472 765.05 619.259 L 764.989 372.409 C 705.054 350.463 643.893 331.669 583.207 311.925 C 545.352 299.61 507.914 285.216 469.406 275.121 L 469.166 265.122 C 471.067 245.126 469.716 224.014 469.801 203.891 z"/>
<path transform="translate(0,0)" fill="rgb(56,90,119)" d="M 765.414 746.005 C 769.851 757.848 780.577 770.464 787.673 780.983 C 792.683 788.409 797.169 796.113 802.008 803.64 C 803.819 803.238 803.139 803.729 804.106 802.252 C 801.633 816.33 802.161 996.022 804.189 999.938 C 791.765 1010.4 777.998 1019.42 765.261 1029.56 L 765.414 746.005 z"/>
<path transform="translate(0,0)" fill="rgb(252,195,36)" d="M 647.215 567.744 C 641.802 569.944 635.996 571.014 630.154 570.886 C 616.351 570.473 603.167 563.686 593.812 553.701 C 583.15 542.322 576.955 526.702 577.694 511.059 C 578.268 498.897 582.537 486.923 591.675 478.599 C 598.177 486.976 603.182 496.353 609.505 504.783 C 613.975 512.464 618.51 520.108 623.109 527.712 C 631.075 540.687 640.358 553.746 647.317 567.226 L 647.215 567.744 z"/>
<path transform="translate(0,0)" fill="rgb(122,145,127)" d="M 761.675 1032.98 C 763.656 1034.92 762.72 1152 763.56 1166.66 C 733.607 1175.45 699.292 1181.17 668.52 1187.91 L 507.201 1224.57 L 505.555 1224.51 C 506.845 1221.97 735.564 1052.31 761.675 1032.98 z"/>
<path transform="translate(0,0)" fill="rgb(13,31,66)" d="M 496.571 965.349 C 502.398 965.014 508.24 964.633 514.074 964.477 C 521.24 964.286 529.302 965.057 534.588 970.476 C 543.634 979.747 541.055 999.209 540.946 1011.23 C 550.565 1011.29 560.184 1011.11 569.794 1010.69 C 572.645 1008.71 575.557 1006.77 578.674 1005.22 C 582.445 1003.34 587.845 1002.09 591.896 1003.91 C 595.51 1005.53 597.724 1008.3 598.826 1012.09 C 600.093 1016.43 599.558 1021.6 597.246 1025.51 C 595.333 1028.75 592.239 1030.82 588.532 1031.45 C 580.423 1032.83 573.136 1027.77 567.04 1023.15 C 558.163 1021.99 549.535 1022.09 540.624 1022.72 L 540.636 1049.25 C 540.578 1061.32 541.555 1073.57 540.841 1085.61 C 540.243 1095.7 537.605 1101.43 530.073 1108.01 C 520.452 1110.41 504.2 1112.31 494.66 1108.99 C 490.1 1107.4 487.204 1102.43 485.318 1098.28 C 480.775 1088.29 481.852 985.25 486.02 975.12 C 488.321 969.528 491.056 967.535 496.571 965.349 z"/>
<path transform="translate(0,0)" fill="rgb(46,87,150)" d="M 503.009 1018.14 C 504.491 1020.01 505.799 1021.69 507.648 1023.21 C 504.5 1030.43 505.418 1059.73 506.426 1068.43 C 507.061 1068.83 508.208 1069.53 508.741 1070.01 C 510.621 1071.7 510.157 1072.69 510.058 1075.04 L 508.658 1076.3 L 506.66 1075.61 C 504.943 1073.81 503.63 1072.24 503.103 1069.7 C 501.334 1061.16 502.981 1029.13 503.009 1018.14 z"/>
<path transform="translate(0,0)" fill="rgb(24,126,202)" d="M 503.009 1018.14 C 502.88 1014.59 502.509 1012.91 504.116 1009.68 L 506.023 1009.55 C 508.119 1012.1 508.976 1013.92 508.643 1017.3 C 508.446 1019.3 508.085 1021.25 507.648 1023.21 C 505.799 1021.69 504.491 1020.01 503.009 1018.14 z"/>
<path transform="translate(0,0)" fill="rgb(25,54,96)" d="M 335.994 244.864 C 367.884 244.231 399.992 243.507 431.87 244.698 C 433.323 328.093 432.117 411.723 432.126 495.14 L 432.001 979.626 L 431.943 1180.14 L 431.875 1243.43 C 431.858 1255.29 431.239 1267.62 432.198 1279.43 L 432.431 1611.14 L 433.141 1691.95 C 433.163 1700.74 434.765 1713.93 432.478 1722.24 C 431.246 1712.43 432.053 1701.47 432.032 1691.54 L 431.941 1629.66 C 412.983 1628.88 393.912 1629.2 374.939 1629.15 C 362.197 1629.12 348.587 1628.13 335.982 1629.93 C 340.688 1616.94 337.499 1576.69 337.376 1561.01 C 336.924 1509.14 337.037 1457.28 337.717 1405.41 C 337.955 1386.19 335.869 1365.74 338.001 1346.68 C 339.519 1336.14 338.4 1324.25 338.302 1313.52 L 337.639 1248.81 L 337.578 1057.22 L 335.994 244.864 z"/>
<path transform="translate(0,0)" fill="url(#Gradient1)" d="M 802.042 1595.29 C 805.348 1603.69 802.36 1623 803.096 1632.58 C 815.165 1628.81 839.01 1630.67 852.308 1630.59 C 882.31 1630.41 912.362 1630.8 942.35 1629.86 C 955.162 1630.09 974.328 1626.96 986.202 1629.75 C 956.98 1732.27 924.684 1833.93 894.703 1936.24 C 883.801 1973.44 871.668 2010.37 862.317 2048 L 113.722 2048 L 0 2048 L 0 1963.69 L 0 1941.38 L 0 1630.39 C 69.2618 1629.69 138.528 1629.55 207.792 1629.97 L 284.215 1630.06 C 300.458 1630.1 317.049 1629.57 333.235 1631.1 L 335.982 1629.93 C 348.587 1628.13 362.197 1629.12 374.939 1629.15 C 393.912 1629.2 412.983 1628.88 431.941 1629.66 L 432.032 1691.54 C 432.053 1701.47 431.246 1712.43 432.478 1722.24 C 432.439 1737.07 432.477 1751.86 433.086 1766.67 C 444.642 1767.29 456.217 1768.13 467.794 1767.85 C 467.999 1768.8 468.46 1769.68 468.836 1770.57 C 476.597 1769.93 523.669 1741.01 534.389 1735.34 L 686.944 1656.02 C 708.535 1645.02 730.023 1633.81 751.406 1622.41 C 762.295 1616.6 773.662 1611.09 784.089 1604.48 C 790.123 1602.47 796.372 1598.3 802.042 1595.29 z"/>
<path transform="translate(0,0)" fill="rgb(25,54,96)" d="M 802.042 1595.29 C 805.348 1603.69 802.36 1623 803.096 1632.58 C 791.022 1644.41 773.209 1653.75 758.787 1662.51 C 730.093 1679.94 700.88 1696.51 672.17 1713.93 L 262.194 1960.27 C 230.061 1979.67 197.64 1998.88 165.137 2017.66 C 148.538 2027.25 128.764 2036.17 113.722 2048 L 0 2048 L 0 1963.69 L 0 1941.38 L 0 1630.39 C 69.2618 1629.69 138.528 1629.55 207.792 1629.97 L 284.215 1630.06 C 300.458 1630.1 317.049 1629.57 333.235 1631.1 L 335.982 1629.93 C 348.587 1628.13 362.197 1629.12 374.939 1629.15 C 393.912 1629.2 412.983 1628.88 431.941 1629.66 L 432.032 1691.54 C 432.053 1701.47 431.246 1712.43 432.478 1722.24 C 432.439 1737.07 432.477 1751.86 433.086 1766.67 C 444.642 1767.29 456.217 1768.13 467.794 1767.85 C 467.999 1768.8 468.46 1769.68 468.836 1770.57 C 476.597 1769.93 523.669 1741.01 534.389 1735.34 L 686.944 1656.02 C 708.535 1645.02 730.023 1633.81 751.406 1622.41 C 762.295 1616.6 773.662 1611.09 784.089 1604.48 C 790.123 1602.47 796.372 1598.3 802.042 1595.29 z"/>
<path transform="translate(0,0)" fill="rgb(25,54,96)" d="M -2.84217e-14 1630.39 C 69.2618 1629.69 138.528 1629.55 207.792 1629.97 L 284.215 1630.06 C 300.458 1630.1 317.049 1629.57 333.235 1631.1 C 321.372 1643.26 308.428 1654.42 295.912 1665.9 L 246.657 1711.64 L 66.5205 1879.05 C 44.4708 1899.73 20.9353 1919.62 0 1941.38 L 0 1630.39 z"/>
<path transform="translate(0,0)" fill="rgb(56,90,119)" d="M 335.982 1629.93 C 348.587 1628.13 362.197 1629.12 374.939 1629.15 C 393.912 1629.2 412.983 1628.88 431.941 1629.66 L 432.032 1691.54 C 432.053 1701.47 431.246 1712.43 432.478 1722.24 C 392.827 1743.14 354.292 1765.62 315.142 1787.38 L 146.117 1881.15 C 97.5856 1908.51 46.6641 1933.14 0 1963.69 L 0 1941.38 C 20.9353 1919.62 44.4708 1899.73 66.5205 1879.05 L 246.657 1711.64 L 295.912 1665.9 C 308.428 1654.42 321.372 1643.26 333.235 1631.1 L 335.982 1629.93 z"/>
</svg>